<svg width="23" height="25" viewBox="0 0 23 25" fill="none" xmlns="http://www.w3.org/2000/svg">
<path fill-rule="evenodd" clip-rule="evenodd" d="M4.10187 7.9977C5.22143 7.26168 6.48526 6.78473 7.80147 6.59473V9.235C6.98009 9.40274 6.19476 9.72865 5.49087 10.199C4.42201 10.9132 3.58893 11.9283 3.09699 13.1159C2.60505 14.3036 2.47633 15.6104 2.72712 16.8712C2.97791 18.1321 3.59694 19.2902 4.50594 20.1992C5.41493 21.1082 6.57305 21.7272 7.83386 21.978C9.09466 22.2288 10.4015 22.1001 11.5892 21.6081C12.7768 21.1162 13.7919 20.2831 14.5061 19.2142C14.8507 18.6985 15.1178 18.139 15.302 17.5536H15.6032V21.9732C14.7488 22.8452 13.7235 23.5407 12.585 24.0123C10.9219 24.7012 9.09178 24.8814 7.32619 24.5302C5.5606 24.179 3.9388 23.3121 2.66588 22.0392C1.39296 20.7663 0.526093 19.1445 0.174895 17.3789C-0.176304 15.6133 0.00394273 13.7832 0.692843 12.1201C1.38174 10.4569 2.54835 9.03543 4.04515 8.0353L4.10187 7.9977Z" fill="#FE7F5A"/>
<rect x="9.75195" y="5.85132" width="2.60053" height="9.752" rx="1.30027" fill="#FE7F5A"/>
<rect x="17.5527" y="13.0027" width="2.60053" height="8.45174" rx="1.30027" fill="#FE7F5A"/>
<rect x="9.75195" y="15.6033" width="2.60053" height="10.4021" rx="1.30027" transform="rotate(-90 9.75195 15.6033)" fill="#FE7F5A"/>
<rect x="10.4023" y="10.603" width="2.60053" height="7.15147" rx="1.30027" transform="rotate(-90 10.4023 10.603)" fill="#FE7F5A"/>
<circle cx="11.0517" cy="2.60053" r="2.60053" fill="#FE7F5A"/>
<rect x="13.7988" y="11.0664" width="6.29984" height="1.4868" rx="0.743398" fill="#FE7F5A"/>
<rect x="18.5625" y="12.0022" width="6.29984" height="1.4868" rx="0.743398" transform="rotate(-60 18.5625 12.0022)" fill="#FE7F5A"/>
</svg>
