<svg width="106" height="40" viewBox="0 0 106 40" fill="none" xmlns="http://www.w3.org/2000/svg">
<path d="M39.6758 4.42073V1.05664H53.9264V4.42073H48.6742V19.746H44.928V4.42073H39.6758Z" fill="#1A5371"/>
<path d="M50.4531 13.5161C50.4531 12.2701 50.7347 11.1612 51.2979 10.1894C51.8692 9.20918 52.6446 8.44083 53.624 7.88435C54.6116 7.31952 55.7338 7.03711 56.9908 7.03711C58.2477 7.03711 59.3659 7.31952 60.3453 7.88435C61.3248 8.44083 62.096 9.20918 62.6592 10.1894C63.2305 11.1612 63.5162 12.2701 63.5162 13.5161C63.5162 14.762 63.2305 15.8751 62.6592 16.8552C62.096 17.8271 61.3248 18.5955 60.3453 19.1603C59.3659 19.7168 58.2477 19.995 56.9908 19.995C55.7338 19.995 54.6116 19.7168 53.624 19.1603C52.6446 18.5955 51.8692 17.8271 51.2979 16.8552C50.7347 15.8751 50.4531 14.762 50.4531 13.5161ZM53.8811 13.5161C53.8811 14.4796 54.1749 15.2812 54.7626 15.9208C55.3503 16.5603 56.093 16.8801 56.9908 16.8801C57.8886 16.8801 58.6313 16.5603 59.2189 15.9208C59.8066 15.2812 60.1004 14.4796 60.1004 13.5161C60.1004 12.5526 59.8066 11.751 59.2189 11.1114C58.6313 10.4718 57.8886 10.152 56.9908 10.152C56.093 10.152 55.3503 10.4718 54.7626 11.1114C54.1749 11.751 53.8811 12.5526 53.8811 13.5161Z" fill="#1A5371"/>
<path d="M64.8633 7.28628H68.1933L68.2793 8.63194C68.793 8.12525 69.3934 7.73483 70.0785 7.4607C70.7643 7.17828 71.5029 7.03711 72.2944 7.03711C73.4458 7.03711 74.4697 7.31952 75.3676 7.88435C76.2655 8.44083 76.9716 9.20918 77.486 10.1894C77.9996 11.1612 78.2571 12.2701 78.2571 13.5161C78.2571 14.762 77.9996 15.8751 77.486 16.8552C76.9716 17.8271 76.2655 18.5955 75.3676 19.1603C74.4697 19.7168 73.4458 19.995 72.2944 19.995C71.5273 19.995 70.8131 19.8663 70.1524 19.6088C69.491 19.343 68.9035 18.9775 68.3891 18.5124V25.9757H64.8633V7.28628ZM71.4989 10.152C70.601 10.152 69.8583 10.4718 69.2708 11.1114C68.6832 11.751 68.3891 12.5526 68.3891 13.5161C68.3891 14.4796 68.6832 15.2812 69.2708 15.9208C69.8583 16.5604 70.601 16.8801 71.4989 16.8801C72.3968 16.8801 73.1395 16.5604 73.727 15.9208C74.3145 15.2812 74.6086 14.4796 74.6086 13.5161C74.6086 12.5526 74.3145 11.751 73.727 11.1114C73.1395 10.4718 72.3968 10.152 71.4989 10.152Z" fill="#1A5371"/>
<path d="M86.576 1.05664H88.6327V19.746H84.8859V5.46734L81.3479 6.77559L80.1484 3.43643L86.576 1.05664Z" fill="#FE7F5A"/>
<path d="M90.6797 10.4011C90.6797 8.40759 90.9284 6.68399 91.4265 5.23037C91.9327 3.77675 92.6795 2.65538 93.6668 1.86628C94.6541 1.07717 95.8705 0.682617 97.3153 0.682617C98.7682 0.682617 99.9839 1.07717 100.964 1.86628C101.951 2.65538 102.694 3.77675 103.192 5.23037C103.697 6.68399 103.951 8.40759 103.951 10.4011C103.951 12.3946 103.697 14.1182 103.192 15.5718C102.694 17.0255 101.951 18.1468 100.964 18.9359C99.9839 19.725 98.7682 20.1196 97.3153 20.1196C95.8705 20.1196 94.6541 19.725 93.6668 18.9359C92.6795 18.1468 91.9327 17.0255 91.4265 15.5718C90.9284 14.1182 90.6797 12.3946 90.6797 10.4011ZM94.4258 10.4011C94.4258 12.3531 94.6704 13.9022 95.1603 15.0486C95.6503 16.1865 96.3686 16.7555 97.3153 16.7555C98.262 16.7555 98.9803 16.1865 99.4696 15.0486C99.9595 13.9022 100.204 12.3531 100.204 10.4011C100.204 8.44076 99.9595 6.89165 99.4696 5.75367C98.9803 4.61569 98.262 4.04671 97.3153 4.04671C96.3686 4.04671 95.6503 4.61569 95.1603 5.75367C94.6704 6.89165 94.4258 8.44076 94.4258 10.4011Z" fill="#FE7F5A"/>
<path d="M39.5527 36.9873L42.2627 29.9157H43.8516L46.5616 36.9873H45.0468L44.4631 35.4033H41.6512L41.0676 36.9873H39.5527ZM43.9998 34.1304C43.8146 33.5772 43.6494 33.0822 43.5042 32.6453C43.3591 32.2084 43.2108 31.7575 43.0595 31.2923C42.9081 31.7575 42.7584 32.2084 42.6101 32.6453C42.465 33.0822 42.2997 33.5772 42.1145 34.1304H43.9998ZM49.4498 36.9968H47.2633V29.9251H49.4498C50.8148 29.9251 51.8633 30.2331 52.5952 30.8491C53.3271 31.462 53.6931 32.3295 53.6931 33.4515C53.6931 34.5766 53.3271 35.4488 52.5952 36.068C51.8633 36.6872 50.8148 36.9968 49.4498 36.9968ZM49.4822 35.7239C50.3778 35.7239 51.0634 35.5259 51.539 35.1298C52.0177 34.7307 52.257 34.1713 52.257 33.4515C52.257 32.7349 52.0177 32.1802 51.539 31.7873C51.0634 31.3944 50.3778 31.198 49.4822 31.198H48.6808V35.7239H49.4822ZM53.8713 36.9873L56.5813 29.9157H58.1702L60.8802 36.9873H59.3653L58.7817 35.4033H55.9698L55.3862 36.9873H53.8713ZM58.3184 34.1304C58.1332 33.5772 57.968 33.0822 57.8228 32.6453C57.6776 32.2084 57.5294 31.7575 57.3781 31.2923C57.2267 31.7575 57.077 32.2084 56.9287 32.6453C56.7835 33.0822 56.6183 33.5772 56.4331 34.1304H58.3184ZM63.5297 36.3886L64.1598 35.3655C64.4253 35.5447 64.6693 35.6877 64.8916 35.7946C65.1171 35.8983 65.3178 35.9502 65.4939 35.9502C65.6297 35.9502 65.7394 35.9187 65.8228 35.8559C65.9061 35.793 65.9478 35.7128 65.9478 35.6154C65.9478 35.474 65.8691 35.3593 65.7116 35.2713C65.5572 35.1833 65.378 35.0968 65.1742 35.0119C64.958 34.9208 64.7403 34.8187 64.5211 34.7055C64.3049 34.5893 64.1227 34.4399 63.9744 34.2577C63.8293 34.0754 63.7567 33.8397 63.7567 33.5505C63.7567 33.1513 63.9111 32.8229 64.2199 32.5652C64.5319 32.3075 64.9719 32.1786 65.5402 32.1786C65.8181 32.1786 66.11 32.2147 66.4157 32.2871C66.7246 32.3562 67.0056 32.4693 67.2588 32.6264L66.6705 33.6589C66.5346 33.5678 66.3571 33.4876 66.1378 33.4185C65.9216 33.3462 65.7378 33.3101 65.5865 33.3101C65.5 33.3101 65.4043 33.3289 65.2993 33.3666C65.1974 33.4012 65.1464 33.4704 65.1464 33.5741C65.1464 33.6904 65.2174 33.7862 65.3595 33.8617C65.5047 33.9371 65.6761 34.0141 65.8738 34.0926C66.0868 34.1775 66.3061 34.2781 66.5316 34.3944C66.7569 34.5075 66.9469 34.6599 67.1013 34.8517C67.2588 35.0402 67.3376 35.2886 67.3376 35.5966C67.3376 35.9046 67.2542 36.1702 67.0874 36.3933C66.9207 36.6164 66.6983 36.7877 66.4203 36.9072C66.1424 37.0235 65.8351 37.0816 65.4985 37.0816C65.1804 37.0816 64.85 37.0251 64.5072 36.9119C64.1675 36.7988 63.8417 36.6243 63.5297 36.3886ZM68.0343 34.6301C68.0343 34.1586 68.1414 33.7391 68.3542 33.3713C68.5704 33.0005 68.8638 32.7097 69.2345 32.4992C69.6078 32.2855 70.0327 32.1786 70.5084 32.1786C70.9842 32.1786 71.407 32.2855 71.7777 32.4992C72.1484 32.7097 72.4398 33.0005 72.6532 33.3713C72.8694 33.7391 72.9771 34.1586 72.9771 34.6301C72.9771 35.1015 72.8694 35.5227 72.6532 35.8936C72.4398 36.2613 72.1484 36.552 71.7777 36.7657C71.407 36.9763 70.9842 37.0816 70.5084 37.0816C70.0327 37.0816 69.6078 36.9763 69.2345 36.7657C68.8638 36.552 68.5704 36.2613 68.3542 35.8936C68.1414 35.5227 68.0343 35.1015 68.0343 34.6301ZM69.332 34.6301C69.332 34.9947 69.4432 35.2979 69.6654 35.54C69.8877 35.782 70.1689 35.903 70.5084 35.903C70.848 35.903 71.1292 35.782 71.3514 35.54C71.5737 35.2979 71.6849 34.9947 71.6849 34.6301C71.6849 34.2655 71.5737 33.9622 71.3514 33.7202C71.1292 33.4782 70.848 33.3572 70.5084 33.3572C70.1689 33.3572 69.8877 33.4782 69.6654 33.7202C69.4432 33.9622 69.332 34.2655 69.332 34.6301ZM75.2913 29.7271V36.9873H73.957V29.7271H75.2913ZM76.4976 32.2776H77.8366V34.8046C77.8366 35.1566 77.9091 35.4284 78.0541 35.6202C78.1998 35.8119 78.4079 35.9077 78.6796 35.9077C78.9703 35.9077 79.2048 35.804 79.3837 35.5966C79.566 35.3891 79.6575 35.1235 79.6575 34.7998H79.6615V32.2729H80.9958V36.9873H79.8289L79.7727 36.4075C79.5911 36.6212 79.3729 36.7877 79.1201 36.9072C78.8666 37.0235 78.5888 37.0816 78.2859 37.0816C77.699 37.0816 77.2545 36.8883 76.9516 36.5017C76.6494 36.1151 76.4976 35.5463 76.4976 34.7951V32.2776ZM82.0218 32.2729H82.7862V31.0943H84.1205V32.2729H85.2461V33.4515H84.1205V35.1864C84.1205 35.4095 84.1896 35.5855 84.3286 35.7144C84.4709 35.8402 84.6498 35.903 84.8659 35.903C85.0265 35.903 85.1919 35.8668 85.362 35.7946V36.9072C85.0686 37.0235 84.7799 37.0816 84.4959 37.0816C83.9457 37.0816 83.5228 36.9323 83.2267 36.6337C82.9333 36.332 82.7862 35.9014 82.7862 35.3419V33.4515H82.0218V32.2729ZM86.184 30.6699C86.184 30.4437 86.2517 30.2614 86.3879 30.1231C86.5235 29.9848 86.7031 29.9157 86.9253 29.9157C87.1476 29.9157 87.3265 29.9848 87.4627 30.1231C87.5982 30.2614 87.6667 30.4437 87.6667 30.6699C87.6667 30.8963 87.5982 31.0786 87.4627 31.2168C87.3265 31.3551 87.1476 31.4243 86.9253 31.4243C86.7031 31.4243 86.5235 31.3551 86.3879 31.2168C86.2517 31.0786 86.184 30.8963 86.184 30.6699ZM86.2585 36.9873V32.2729H87.5921V36.9873H86.2585ZM88.4934 34.6301C88.4934 34.1586 88.5998 33.7391 88.8126 33.3713C89.0288 33.0005 89.3222 32.7097 89.6929 32.4992C90.0669 32.2855 90.4911 32.1786 90.9669 32.1786C91.4426 32.1786 91.8654 32.2855 92.2361 32.4992C92.6068 32.7097 92.8989 33.0005 93.1116 33.3713C93.3278 33.7391 93.4362 34.1586 93.4362 34.6301C93.4362 35.1015 93.3278 35.5227 93.1116 35.8936C92.8989 36.2613 92.6068 36.552 92.2361 36.7657C91.8654 36.9763 91.4426 37.0816 90.9669 37.0816C90.4911 37.0816 90.0669 36.9763 89.6929 36.7657C89.3222 36.552 89.0288 36.2613 88.8126 35.8936C88.5998 35.5227 88.4934 35.1015 88.4934 34.6301ZM89.7905 34.6301C89.7905 34.9947 89.9016 35.2979 90.1239 35.54C90.3461 35.782 90.6274 35.903 90.9669 35.903C91.3064 35.903 91.5876 35.782 91.8099 35.54C92.0321 35.2979 92.1433 34.9947 92.1433 34.6301C92.1433 34.2655 92.0321 33.9622 91.8099 33.7202C91.5876 33.4782 91.3064 33.3572 90.9669 33.3572C90.6274 33.3572 90.3461 33.4782 90.1239 33.7202C89.9016 33.9622 89.7905 34.2655 89.7905 34.6301ZM94.4155 36.9873V32.2729H95.583L95.6386 32.848C95.8209 32.6343 96.0384 32.4693 96.2919 32.3531C96.548 32.2367 96.8293 32.1786 97.1349 32.1786C97.6757 32.1786 98.106 32.3609 98.4272 32.7255C98.7484 33.0869 98.909 33.5913 98.909 34.2388V36.9873H97.5706V34.5028C97.5706 33.7391 97.2894 33.3572 96.7269 33.3572C96.4369 33.3572 96.2004 33.4656 96.0188 33.6825C95.8392 33.8994 95.7498 34.2042 95.7498 34.5971V36.9873H94.4155ZM99.8381 36.3886L100.468 35.3655C100.733 35.5447 100.977 35.6877 101.199 35.7946C101.425 35.8983 101.626 35.9502 101.802 35.9502C101.938 35.9502 102.047 35.9187 102.131 35.8559C102.214 35.793 102.256 35.7128 102.256 35.6154C102.256 35.474 102.177 35.3593 102.019 35.2713C101.866 35.1833 101.686 35.0968 101.482 35.0119C101.266 34.9208 101.048 34.8187 100.829 34.7055C100.613 34.5893 100.431 34.4399 100.283 34.2577C100.138 34.0754 100.065 33.8397 100.065 33.5505C100.065 33.1513 100.219 32.8229 100.528 32.5652C100.84 32.3075 101.28 32.1786 101.848 32.1786C102.126 32.1786 102.418 32.2147 102.724 32.2871C103.033 32.3562 103.314 32.4693 103.567 32.6264L102.978 33.6589C102.843 33.5678 102.665 33.4876 102.446 33.4185C102.229 33.3462 102.046 33.3101 101.895 33.3101C101.808 33.3101 101.712 33.3289 101.607 33.3666C101.506 33.4012 101.454 33.4704 101.454 33.5741C101.454 33.6904 101.525 33.7862 101.668 33.8617C101.813 33.9371 101.984 34.0141 102.182 34.0926C102.395 34.1775 102.614 34.2781 102.839 34.3944C103.065 34.5075 103.255 34.6599 103.409 34.8517C103.567 35.0402 103.646 35.2886 103.646 35.5966C103.646 35.9046 103.562 36.1702 103.396 36.3933C103.229 36.6164 103.006 36.7877 102.728 36.9072C102.45 37.0235 102.143 37.0816 101.807 37.0816C101.489 37.0816 101.158 37.0251 100.815 36.9119C100.476 36.7988 100.15 36.6243 99.8381 36.3886Z" fill="#1A5371"/>
<path fill-rule="evenodd" clip-rule="evenodd" d="M10.6811 10.8493C11.1506 10.7277 11.6269 10.6312 12.1077 10.5605V14.6143C10.8685 14.8718 9.68364 15.3722 8.62162 16.0943C7.00907 17.1909 5.75229 18.7494 5.01013 20.5729C4.26797 22.3964 4.07379 24.4029 4.45214 26.3387C4.83049 28.2745 5.76438 30.0525 7.13573 31.4482C8.50703 32.8439 10.2542 33.7943 12.1563 34.1793C14.0585 34.5643 16.03 34.3668 17.8218 33.6114C19.6135 32.8561 21.145 31.577 22.2224 29.936C22.7423 29.1441 23.1453 28.2851 23.423 27.3864H23.8775V34.172C22.5886 35.5108 21.0418 36.5785 19.3241 37.3026C16.815 38.3603 14.0541 38.6371 11.3905 38.0979C8.72686 37.5587 6.28012 36.2277 4.35974 34.2733C2.43937 32.319 1.13157 29.8289 0.601742 27.1181C0.0719127 24.4073 0.34384 21.5975 1.38314 19.044C2.42244 16.4904 4.18243 14.3079 6.44056 12.7723C7.74345 11.8863 9.17845 11.2387 10.6811 10.8493Z" fill="#1A5371"/>
<path d="M18.974 11.4158C18.974 10.3132 18.0958 9.41943 17.0124 9.41943C15.929 9.41943 15.0508 10.3132 15.0508 11.4158V22.3958C15.0508 23.4984 15.929 24.3922 17.0124 24.3922C18.0958 24.3922 18.974 23.4984 18.974 22.3958V11.4158Z" fill="#1A5371"/>
<path d="M30.7436 22.3958C30.7436 21.2932 29.8653 20.3994 28.7819 20.3994C27.6986 20.3994 26.8203 21.2932 26.8203 22.3958V31.3795C26.8203 32.482 27.6986 33.3758 28.7819 33.3758C29.8653 33.3758 30.7436 32.482 30.7436 31.3795V22.3958Z" fill="#1A5371"/>
<path d="M17.0124 20.3994C15.929 20.3994 15.0508 21.2932 15.0508 22.3957C15.0508 23.4983 15.929 24.3921 17.0124 24.3921H28.7822C29.8656 24.3921 30.7439 23.4983 30.7439 22.3957C30.7439 21.2932 29.8656 20.3994 28.7822 20.3994H17.0124Z" fill="#1A5371"/>
<path d="M17.9929 12.7221C16.9095 12.7221 16.0312 13.6159 16.0312 14.7185C16.0312 15.821 16.9095 16.7148 17.9929 16.7148H24.8586C25.9419 16.7148 26.8202 15.821 26.8202 14.7185C26.8202 13.6159 25.9419 12.7221 24.8586 12.7221H17.9929Z" fill="#1A5371"/>
<path d="M17.0131 8.42102C19.1799 8.42102 20.9364 6.63341 20.9364 4.42829C20.9364 2.22316 19.1799 0.435547 17.0131 0.435547C14.8464 0.435547 13.0898 2.22316 13.0898 4.42829C13.0898 6.63341 14.8464 8.42102 17.0131 8.42102Z" fill="#1A5371"/>
<path d="M29.5389 17.4268H22.2778C21.6584 17.4268 21.1562 17.9378 21.1562 18.5681C21.1562 19.1985 21.6584 19.7095 22.2778 19.7095H29.5389C30.1583 19.7095 30.6604 19.1985 30.6604 18.5681C30.6604 17.9378 30.1583 17.4268 29.5389 17.4268Z" fill="#1A5371"/>
<path d="M32.5351 11.4751L28.9045 17.8748C28.5948 18.4207 28.7786 19.1188 29.315 19.434C29.8514 19.7492 30.5373 19.5621 30.847 19.0162L34.4776 12.6165C34.7873 12.0706 34.6035 11.3725 34.0671 11.0574C33.5307 10.7422 32.8448 10.9292 32.5351 11.4751Z" fill="#1A5371"/>
</svg>
