<svg width="70" height="40" viewBox="0 0 70 40" fill="none" xmlns="http://www.w3.org/2000/svg">
<rect width="70" height="40" fill="#67B51A"/>
<path d="M40.3125 0C38.4374 8.12505 33.5937 16.875 26.0937 24.375C18.125 32.3438 8.59373 37.3437 0 38.9062V4.25577e-05C0.5 4.13656e-05 0 0.5 0 4.25577e-05L40.3125 0Z" fill="white" fill-opacity="0.1"/>
<path d="M23.4097 22.3594C22.189 22.3594 21.1025 22.103 20.1504 21.5903C19.1982 21.0776 18.4495 20.3737 17.9043 19.4785C17.3672 18.5833 17.0986 17.5579 17.0986 16.4023C17.0986 15.2142 17.3794 14.1644 17.9409 13.2529C18.5106 12.3415 19.2878 11.6253 20.2725 11.1045C21.2653 10.5837 22.3965 10.3232 23.666 10.3232C24.9844 10.3232 26.1318 10.6081 27.1084 11.1777C28.0931 11.7393 28.854 12.5327 29.3911 13.5581C29.9282 14.5835 30.1968 15.7839 30.1968 17.1592C30.1968 18.7135 29.8509 20.272 29.1592 21.8345C28.4756 23.3888 27.5112 24.8455 26.2661 26.2046C25.0291 27.5636 23.5765 28.7233 21.9082 29.6836L19.6621 27.1323C20.8258 26.4569 21.8675 25.696 22.7871 24.8496C23.7067 24.0033 24.4513 23.1121 25.021 22.1763C24.7931 22.2332 24.5449 22.278 24.2764 22.3105C24.016 22.3431 23.7271 22.3594 23.4097 22.3594ZM23.605 19.4785C24.4025 19.4785 25.0617 19.2018 25.5825 18.6484C26.1115 18.0951 26.376 17.3952 26.376 16.5488C26.376 15.7025 26.1156 15.0026 25.5947 14.4492C25.082 13.8958 24.4269 13.6191 23.6294 13.6191C22.84 13.6191 22.1849 13.8999 21.6641 14.4614C21.1432 15.0148 20.8828 15.7188 20.8828 16.5732C20.8828 17.4196 21.1392 18.1154 21.6519 18.6606C22.1646 19.2059 22.8156 19.4785 23.605 19.4785ZM31.418 27.291C31.418 26.7051 31.597 26.2331 31.9551 25.875C32.3132 25.5169 32.7852 25.3379 33.3711 25.3379C33.957 25.3379 34.429 25.5169 34.7871 25.875C35.1452 26.2331 35.3242 26.7051 35.3242 27.291C35.3242 27.877 35.1452 28.349 34.7871 28.707C34.429 29.0651 33.957 29.2441 33.3711 29.2441C32.7852 29.2441 32.3132 29.0651 31.9551 28.707C31.597 28.349 31.418 27.877 31.418 27.291ZM40.8667 19.2344C40.0366 18.8356 39.3856 18.2863 38.9136 17.5864C38.4497 16.8784 38.2178 16.0565 38.2178 15.1206C38.2178 14.1603 38.4619 13.3221 38.9502 12.606C39.4385 11.8817 40.1221 11.3201 41.001 10.9214C41.888 10.5226 42.9215 10.3232 44.1016 10.3232C45.2734 10.3232 46.2988 10.5226 47.1777 10.9214C48.0566 11.3201 48.7402 11.8817 49.2285 12.606C49.7168 13.3221 49.9609 14.1603 49.9609 15.1206C49.9609 16.0483 49.7249 16.8662 49.2529 17.5742C48.7891 18.2822 48.1462 18.8356 47.3242 19.2344C48.3415 19.6576 49.1349 20.2842 49.7046 21.1143C50.2824 21.9362 50.5713 22.9006 50.5713 24.0073C50.5713 25.0734 50.2987 26.0093 49.7534 26.8149C49.2163 27.6206 48.4635 28.2472 47.4951 28.6948C46.5267 29.1424 45.3955 29.3662 44.1016 29.3662C42.8076 29.3662 41.6764 29.1424 40.708 28.6948C39.7396 28.2472 38.9827 27.6206 38.4375 26.8149C37.9004 26.0093 37.6318 25.0734 37.6318 24.0073C37.6318 22.9006 37.9167 21.9362 38.4863 21.1143C39.0641 20.2842 39.8576 19.6576 40.8667 19.2344ZM41.7822 15.4502C41.7822 16.1094 41.9938 16.6424 42.417 17.0493C42.8483 17.4481 43.4098 17.6475 44.1016 17.6475C44.7852 17.6475 45.3385 17.4481 45.7617 17.0493C46.193 16.6424 46.4087 16.1094 46.4087 15.4502C46.4087 14.7829 46.193 14.2498 45.7617 13.8511C45.3385 13.4523 44.7852 13.2529 44.1016 13.2529C43.4098 13.2529 42.8483 13.4523 42.417 13.8511C41.9938 14.2498 41.7822 14.7829 41.7822 15.4502ZM44.1016 26.0703C44.9805 26.0703 45.6844 25.8343 46.2134 25.3623C46.7505 24.8903 47.019 24.2718 47.019 23.5068C47.019 22.7337 46.7505 22.1152 46.2134 21.6514C45.6844 21.1794 44.9805 20.9434 44.1016 20.9434C43.2227 20.9434 42.5146 21.1794 41.9775 21.6514C41.4486 22.1152 41.1841 22.7337 41.1841 23.5068C41.1841 24.2718 41.4486 24.8903 41.9775 25.3623C42.5146 25.8343 43.2227 26.0703 44.1016 26.0703Z" fill="white"/>
</svg>
