<svg width="40" height="40" viewBox="0 0 40 40" fill="none" xmlns="http://www.w3.org/2000/svg">
<circle cx="20" cy="20" r="20" fill="#FE7F5A"/>
<path d="M29.7094 28.2899L25.9994 24.6099C27.4395 22.8143 28.1369 20.5352 27.9482 18.2412C27.7595 15.9472 26.6991 13.8127 24.9849 12.2765C23.2708 10.7404 21.0332 9.91941 18.7323 9.98237C16.4315 10.0453 14.2421 10.9875 12.6146 12.615C10.987 14.2426 10.0448 16.4319 9.98189 18.7328C9.91893 21.0337 10.7399 23.2713 12.2761 24.9854C13.8122 26.6996 15.9467 27.76 18.2407 27.9487C20.5347 28.1374 22.8138 27.44 24.6094 25.9999L28.2894 29.6799C28.3824 29.7736 28.493 29.848 28.6148 29.8988C28.7367 29.9496 28.8674 29.9757 28.9994 29.9757C29.1314 29.9757 29.2621 29.9496 29.384 29.8988C29.5059 29.848 29.6165 29.7736 29.7094 29.6799C29.8897 29.4934 29.9904 29.2442 29.9904 28.9849C29.9904 28.7256 29.8897 28.4764 29.7094 28.2899ZM18.9994 25.9999C17.6149 25.9999 16.2616 25.5894 15.1104 24.8202C13.9593 24.051 13.0621 22.9578 12.5323 21.6787C12.0024 20.3996 11.8638 18.9921 12.1339 17.6343C12.404 16.2764 13.0707 15.0291 14.0497 14.0502C15.0286 13.0712 16.2759 12.4045 17.6338 12.1344C18.9917 11.8643 20.3991 12.0029 21.6782 12.5327C22.9573 13.0626 24.0505 13.9598 24.8197 15.1109C25.5889 16.2621 25.9994 17.6154 25.9994 18.9999C25.9994 20.8564 25.2619 22.6369 23.9492 23.9497C22.6364 25.2624 20.8559 25.9999 18.9994 25.9999Z" fill="white"/>
</svg>
