<svg width="13" height="13" viewBox="0 0 13 13" fill="none" xmlns="http://www.w3.org/2000/svg">
<path d="M12.5681 11.6811L10.2494 9.38113C11.1495 8.25889 11.5853 6.83444 11.4674 5.40069C11.3495 3.96694 10.6867 2.63287 9.61534 1.67278C8.544 0.712696 7.14552 0.199573 5.70747 0.238923C4.26941 0.278274 2.90109 0.867105 1.88385 1.88434C0.866617 2.90158 0.277785 4.2699 0.238435 5.70796C0.199085 7.14601 0.712207 8.54449 1.67229 9.61583C2.63238 10.6872 3.96645 11.35 5.4002 11.4679C6.83395 11.5858 8.2584 11.1499 9.38064 10.2499L11.6806 12.5499C11.7387 12.6085 11.8079 12.655 11.884 12.6867C11.9602 12.7184 12.0419 12.7348 12.1244 12.7348C12.2069 12.7348 12.2886 12.7184 12.3648 12.6867C12.4409 12.655 12.51 12.6085 12.5681 12.5499C12.6808 12.4333 12.7438 12.2776 12.7438 12.1155C12.7438 11.9534 12.6808 11.7977 12.5681 11.6811ZM5.87439 10.2499C5.0091 10.2499 4.16324 9.99329 3.44377 9.51256C2.72431 9.03183 2.16355 8.34855 1.83242 7.54912C1.50128 6.74969 1.41464 5.87003 1.58346 5.02136C1.75227 4.17269 2.16894 3.39314 2.7808 2.78129C3.39265 2.16943 4.1722 1.75275 5.02087 1.58394C5.86954 1.41513 6.7492 1.50177 7.54863 1.83291C8.34806 2.16404 9.03134 2.72479 9.51207 3.44426C9.9928 4.16372 10.2494 5.00959 10.2494 5.87488C10.2494 7.0352 9.78846 8.148 8.96798 8.96847C8.14751 9.78894 7.03471 10.2499 5.87439 10.2499Z" fill="#859EAB"/>
</svg>
