<svg width="23" height="21" viewBox="0 0 23 21" fill="none" xmlns="http://www.w3.org/2000/svg">
<path d="M22.9204 12.3985C22.9163 12.3372 22.9065 12.2765 22.8911 12.217L20.4903 5.82424C20.9272 5.54164 21.2865 5.15427 21.5355 4.69738C21.7845 4.24049 21.9153 3.72859 21.916 3.20825C21.916 2.93198 21.8063 2.66703 21.6109 2.47168C21.4156 2.27633 21.1506 2.16659 20.8743 2.16659C20.5981 2.16659 20.3331 2.27633 20.1378 2.47168C19.9424 2.66703 19.8327 2.93198 19.8327 3.20825C19.8326 3.44038 19.755 3.66584 19.6122 3.84886C19.4694 4.03188 19.2696 4.16199 19.0445 4.21853C18.8193 4.27508 18.5818 4.25484 18.3694 4.16101C18.1571 4.06718 17.9822 3.90515 17.8724 3.70061C17.6051 3.22614 17.2143 2.83296 16.7414 2.56285C16.2685 2.29275 15.7313 2.15581 15.1868 2.16659H12.541V1.12492C12.541 0.848651 12.4313 0.583699 12.2359 0.388349C12.0406 0.192999 11.7756 0.083252 11.4993 0.083252C11.2231 0.083252 10.9581 0.192999 10.7628 0.388349C10.5674 0.583699 10.4577 0.848651 10.4577 1.12492V2.16659H7.81185C7.26738 2.15581 6.73016 2.29275 6.25729 2.56285C5.78442 2.83296 5.39356 3.22614 5.12627 3.70061C5.0165 3.90515 4.84158 4.06718 4.62926 4.16101C4.41693 4.25484 4.17936 4.27508 3.95422 4.21853C3.72908 4.16199 3.52927 4.03188 3.38648 3.84886C3.24369 3.66584 3.1661 3.44038 3.16602 3.20825C3.16602 2.93198 3.05627 2.66703 2.86092 2.47168C2.66557 2.27633 2.40062 2.16659 2.12435 2.16659C1.84808 2.16659 1.58313 2.27633 1.38778 2.47168C1.19243 2.66703 1.08268 2.93198 1.08268 3.20825C1.08336 3.72859 1.21416 4.24049 1.46315 4.69738C1.71215 5.15427 2.07145 5.54164 2.50836 5.82424L0.107682 12.217C0.0922719 12.2765 0.0824411 12.3372 0.0783177 12.3985C0.0600244 12.4587 0.0475336 12.5206 0.0410156 12.5833C0.0410156 12.5929 0.0438177 12.6018 0.0438802 12.6115C0.0441927 12.6252 0.0470052 12.6379 0.0479427 12.6515C0.0641616 13.7441 0.509554 14.7864 1.28789 15.5532C2.06623 16.3201 3.11502 16.75 4.20768 16.75C5.30034 16.75 6.34913 16.3201 7.12747 15.5532C7.90581 14.7864 8.3512 13.7441 8.36742 12.6515C8.36831 12.6379 8.37117 12.6252 8.37148 12.6115C8.37155 12.6018 8.37435 12.5929 8.37435 12.5833C8.36784 12.5206 8.35537 12.4588 8.33709 12.3985C8.33296 12.3372 8.32313 12.2765 8.30772 12.217L5.9042 5.8168C6.34562 5.5351 6.70887 5.14663 6.96037 4.68734C7.05127 4.54596 7.17786 4.43107 7.32736 4.35427C7.47686 4.27747 7.64398 4.24147 7.81185 4.24992H10.4577V18.8333H7.33268C7.05641 18.8333 6.79146 18.943 6.59611 19.1383C6.40076 19.3337 6.29102 19.5987 6.29102 19.8749C6.29102 20.1512 6.40076 20.4161 6.59611 20.6115C6.79146 20.8068 7.05641 20.9166 7.33268 20.9166H15.666C15.9423 20.9166 16.2072 20.8068 16.4026 20.6115C16.5979 20.4161 16.7077 20.1512 16.7077 19.8749C16.7077 19.5987 16.5979 19.3337 16.4026 19.1383C16.2072 18.943 15.9423 18.8333 15.666 18.8333H12.541V4.24992H15.1868C15.3547 4.24148 15.5218 4.27748 15.6713 4.35428C15.8208 4.43108 15.9474 4.54597 16.0383 4.68734C16.2898 5.14663 16.653 5.5351 17.0945 5.8168L14.691 12.217C14.6756 12.2765 14.6658 12.3372 14.6617 12.3985C14.6434 12.4587 14.6309 12.5206 14.6243 12.5833C14.6243 12.5929 14.6272 12.6018 14.6272 12.6115C14.6275 12.6252 14.6303 12.6379 14.6313 12.6515C14.6475 13.7441 15.0929 14.7864 15.8712 15.5532C16.6496 16.3201 17.6984 16.75 18.791 16.75C19.8837 16.75 20.9325 16.3201 21.7108 15.5532C22.4891 14.7864 22.9345 13.7441 22.9508 12.6515C22.9516 12.6379 22.9545 12.6252 22.9548 12.6115C22.9549 12.6018 22.9577 12.5929 22.9577 12.5833C22.9512 12.5206 22.9387 12.4588 22.9204 12.3985ZM4.20768 7.22443L5.82893 11.5416H2.58643L4.20768 7.22443ZM6.00212 13.6249C5.81828 13.9386 5.55642 14.1994 5.24198 14.3819C4.92755 14.5644 4.57123 14.6625 4.20768 14.6666C3.84209 14.6665 3.48297 14.5701 3.16639 14.3873C2.84981 14.2044 2.5869 13.9415 2.40409 13.6249H6.00212ZM18.791 7.22443L20.4123 11.5416H17.1698L18.791 7.22443ZM18.791 14.6666C18.4254 14.6665 18.0663 14.5701 17.7497 14.3873C17.4331 14.2044 17.1702 13.9415 16.9874 13.6249H20.5855C20.4016 13.9386 20.1398 14.1994 19.8253 14.3819C19.5109 14.5644 19.1546 14.6625 18.791 14.6666Z" fill="#FE7F5A"/>
</svg>
