<svg width="25" height="25" viewBox="0 0 25 25" fill="none" xmlns="http://www.w3.org/2000/svg">
<g clip-path="url(#clip0)">
<path d="M21.5522 3.88286L20.259 4.74498L18.1037 4.31392L16.8105 3.88286L15.0862 4.31392L13.793 3.88286L14.6551 2.15859H16.3794L18.0691 1.31372C19.3723 1.95816 20.5513 2.82803 21.5522 3.88286Z" fill="#03AA6F"/>
<path d="M11.6372 2.15855L11.2061 3.45176L9.91291 3.88282L8.61969 6.03814L6.46437 7.33136L3.44693 7.76241V9.05563L4.30904 9.91774V11.642L3.01592 10.7799L1.72271 9.91774L0.972656 7.66329C2.26367 4.58672 4.73155 2.15464 7.82657 0.908447L9.0508 1.72749L11.6372 2.15855Z" fill="#03AA6F"/>
<path d="M12.4996 14.2282L12.0686 16.3836L10.3443 18.1078V19.401L8.62003 20.6942V22.8495L7.32686 22.4185L6.4647 20.2631V15.9525L4.30938 15.5214L3.44727 13.7972V12.504L4.30938 11.6418L5.60259 10.3486L6.4647 12.0729H9.48214L10.7754 14.2282H12.4996Z" fill="#03AA6F"/>
<path d="M23.4051 6.39585C25.7583 10.594 25.4902 15.7707 22.7154 19.7028L21.5515 18.5389V16.8147L20.6894 15.0904L19.8273 13.3661V11.6419L18.5341 10.7797L16.8098 11.2108L13.7924 9.91759L13.3613 6.90015L14.6545 5.60693H17.2409L18.103 6.90015L20.6894 7.3312L23.2758 6.46909L23.4051 6.39585Z" fill="#03AA6F"/>
<path d="M15.0855 4.31375L16.8098 3.8827L18.103 4.31375L20.2583 4.74481L21.5516 3.8827C22.2736 4.63836 22.8965 5.4828 23.4051 6.39579L23.2758 6.46908L20.6894 7.33119L18.1031 6.90014L17.241 5.60692H14.6546L13.3614 6.90014L13.7924 9.91758L16.8098 11.2108L18.5341 10.7797L19.8273 11.6418V13.3661L20.6894 15.0904L21.5516 16.8147V18.5389L22.7154 19.7028C18.7346 25.3437 10.9344 26.6891 5.29391 22.7082C0.503466 19.3269 -1.29366 13.0708 0.972461 7.66313L1.72251 9.91758L3.01573 10.7797L4.30894 11.6418L3.44678 12.504V13.7972L4.30889 15.5214L6.46422 15.9525V20.2632L7.32633 22.4185L8.61955 22.8495V20.6942L10.3438 19.401V18.1078L12.0681 16.3835L12.4991 14.2282H10.7749L9.48166 12.0729H6.46422L5.60211 10.3486L4.30889 11.6418V9.91753L3.44678 9.05546V7.76225L6.46422 7.33119L8.61955 6.03798L9.91276 3.88265L11.206 3.45159L11.637 2.15838L9.05065 1.72732L7.82643 0.908276C11.1413 -0.426737 14.8692 -0.279324 18.0685 1.3135L16.3787 2.15838H14.6545L13.7924 3.88265L15.0855 4.31375Z" fill="#86DAF1"/>
</g>
<defs>
<clipPath id="clip0">
<rect width="25" height="25" fill="white"/>
</clipPath>
</defs>
</svg>
